SplineFontDB: 3.0
FontName: cloudsymbols
FullName: Cloud Symbols
FamilyName: cloudsymbols
Weight: Regular
Copyright: 
Version: 
ItalicAngle: 0
UnderlinePosition: 0
UnderlineWidth: 0
Ascent: 800
Descent: 200
InvalidEm: 0
sfntRevision: 0x00010000
LayerCount: 2
Layer: 0 0 "Back" 1
Layer: 1 0 "Fore" 0
XUID: [1021 359 303117719 4877089]
StyleMap: 0x0040
FSType: 8
OS2Version: 3
OS2_WeightWidthSlopeOnly: 0
OS2_UseTypoMetrics: 0
CreationTime: 1591322630
ModificationTime: 1592141578
PfmFamily: 17
TTFWeight: 400
TTFWidth: 5
LineGap: 90
VLineGap: 0
Panose: 2 0 5 3 0 0 0 0 0 0
OS2TypoAscent: 800
OS2TypoAOffset: 0
OS2TypoDescent: -200
OS2TypoDOffset: 0
OS2TypoLinegap: 90
OS2WinAscent: 1252
OS2WinAOffset: 0
OS2WinDescent: 269
OS2WinDOffset: 0
HheadAscent: 1252
HheadAOffset: 0
HheadDescent: -269
HheadDOffset: 0
OS2SubXSize: 650
OS2SubYSize: 699
OS2SubXOff: 0
OS2SubYOff: 140
OS2SupXSize: 650
OS2SupYSize: 699
OS2SupXOff: 0
OS2SupYOff: 479
OS2StrikeYSize: 49
OS2StrikeYPos: 258
OS2CapHeight: 713
OS2XHeight: 498
OS2Vendor: 'PfEd'
OS2CodePages: 00000093.00000000
OS2UnicodeRanges: a00002ff.400020ca.00000020.00000000
Lookup: 4 0 0 "'dlig' Discretionary Ligatures lookup 0" { "'dlig' Discretionary Ligatures lookup 0 subtable"  } ['dlig' ('DFLT' <'dflt' > 'cyrl' <'dflt' > 'grek' <'dflt' > 'latn' <'dflt' > ) ]
Lookup: 257 2 0 "'mark' Mark Positioning in Latin lookup 0" { "'mark' Mark Positioning in Latin lookup 0 subtable"  } ['mark' ('DFLT' <'dflt' > 'latn' <'dflt' > ) ]
Lookup: 260 4 0 "'mark' Mark Positioning in Latin lookup 1" { "'mark' Mark Positioning in Latin lookup 1 anchor 0"  "'mark' Mark Positioning in Latin lookup 1 anchor 1"  } ['mark' ('DFLT' <'dflt' > 'latn' <'dflt' > ) ]
Lookup: 262 256 0 "'mkmk' Mark to Mark in Latin lookup 2" { "'mkmk' Mark to Mark in Latin lookup 2 subtable"  } ['mkmk' ('DFLT' <'dflt' > 'latn' <'dflt' > ) ]

StartChar: A
Encoding: 65 65 0
Width: 681
GlyphClass: 2
Flags: MW
HStem: 0 21G<20 20 20 120 552 552 552 652> 188 76<211 459 211 485 185 459> 693 20G<283 388 388 388>
AnchorPoint: "Anchor-4" 681 526 basechar 0
AnchorPoint: "Anchor-3" 708 0 basechar 0
AnchorPoint: "Anchor-2" 345 0 basechar 0
AnchorPoint: "Anchor-1" 335 -49 basechar 0
AnchorPoint: "Anchor-0" 335 747 basechar 0
LayerCount: 2
Fore
SplineSet
334 618 m 1
 211 264 l 1
 459 264 l 1
 334 618 l 1
20 0 m 1
 24 10 28 20 33 31 c 0
 38 42 43 53 48 67 c 0
 53 81 58 96 65 113 c 0
 72 130 80 150 88 173 c 2
 283 713 l 1
 388 713 l 1
 583 173 l 2
 591 150 598 130 605 113 c 0
 612 96 618 81 624 67 c 0
 630 53 634 42 639 31 c 0
 644 20 648 10 652 0 c 1
 552 0 l 1
 485 188 l 1
 185 188 l 1
 120 0 l 1
 20 0 l 1
EndSplineSet
EndChar

StartChar: C
Encoding: 67 67 1
Width: 661
GlyphClass: 2
Flags: MW
HStem: -12 85<354.5 375.5> 642 83<359 383.5>
VStem: 46 96<337 378.5>
AnchorPoint: "Anchor-4" 662 526 basechar 0
AnchorPoint: "Anchor-3" 366 -49 basechar 0
AnchorPoint: "Anchor-2" 366 0 basechar 0
AnchorPoint: "Anchor-1" 366 -49 basechar 0
AnchorPoint: "Anchor-0" 366 747 basechar 0
LayerCount: 2
Fore
SplineSet
601 68 m 1
 587 55 569 43 550 33 c 0
 531 23 511 15 490 8 c 0
 469 1 447 -4 426 -7 c 0
 405 -10 385 -12 366 -12 c 0
 317 -12 272 -4 233 13 c 0
 194 30 160 54 132 85 c 0
 104 116 84 154 69 198 c 0
 54 242 46 292 46 347 c 0
 46 410 56 465 74 512 c 0
 92 559 117 598 147 630 c 0
 177 662 212 685 252 701 c 0
 292 717 333 725 376 725 c 0
 394 725 412 724 430 722 c 0
 448 720 467 715 485 710 c 0
 503 705 522 698 540 689 c 0
 558 680 575 670 593 657 c 1
 564 569 l 1
 549 583 533 595 517 604 c 0
 501 613 485 620 469 626 c 0
 453 632 438 636 422 638 c 0
 406 640 391 642 376 642 c 0
 342 642 311 636 282 624 c 0
 253 612 229 595 208 571 c 0
 187 547 171 517 159 482 c 0
 147 447 142 406 142 359 c 0
 142 315 147 275 159 240 c 0
 171 205 187 175 207 150 c 0
 227 125 251 106 279 93 c 0
 307 80 338 73 371 73 c 0
 390 73 408 76 427 80 c 0
 446 84 465 90 483 98 c 0
 501 106 519 115 536 126 c 0
 553 137 567 150 581 164 c 1
 601 68 l 1
EndSplineSet
EndChar

StartChar: N
Encoding: 78 78 2
Width: 732
GlyphClass: 2
Flags: MW
HStem: 0 21G<78 166 78 78 554 554 554 635> 693 20G<78 166 166 166 554 642 642 642>
VStem: 85 81<212 500 500 524> 554 81<0 500 148 500 500 569 0 713>
AnchorPoint: "Anchor-4" 732 526 basechar 0
AnchorPoint: "Anchor-3" 360 -49 basechar 0
AnchorPoint: "Anchor-2" 601 0 basechar 0
AnchorPoint: "Anchor-1" 360 -49 basechar 0
AnchorPoint: "Anchor-0" 360 747 basechar 0
LayerCount: 2
Fore
SplineSet
166 562 m 1
 166 0 l 1
 78 0 l 1
 82 20 83 48 84 85 c 0
 85 122 85 164 85 212 c 2
 85 500 l 2
 85 548 85 591 84 628 c 0
 83 665 82 693 78 713 c 1
 166 713 l 1
 554 148 l 1
 554 713 l 1
 642 713 l 1
 640 703 639 691 638 677 c 0
 637 663 636 646 636 628 c 0
 636 610 635 590 635 569 c 2
 635 500 l 1
 635 0 l 1
 554 0 l 1
 166 562 l 1
EndSplineSet
EndChar

StartChar: S
Encoding: 83 83 3
Width: 573
GlyphClass: 2
Flags: MW
HStem: -12 85<264.5 286 258 292.5> 640 85<281 299>
VStem: 66 93<528.5 537.5> 427 93<191.5 204.5>
AnchorPoint: "Anchor-4" 574 526 basechar 0
AnchorPoint: "Anchor-3" 283 -49 basechar 0
AnchorPoint: "Anchor-2" 283 0 basechar 0
AnchorPoint: "Anchor-1" 283 -49 basechar 0
AnchorPoint: "Anchor-0" 283 747 basechar 0
LayerCount: 2
Fore
SplineSet
469 586 m 1
 451 596 435 604 420 611 c 0
 405 618 391 623 377 627 c 0
 363 631 349 635 335 637 c 0
 321 639 307 640 291 640 c 0
 271 640 253 637 237 631 c 0
 221 625 207 617 195 607 c 0
 183 597 174 587 168 574 c 0
 162 561 159 548 159 535 c 0
 159 522 160 509 164 498 c 0
 168 487 176 478 187 468 c 0
 198 458 215 448 236 439 c 0
 257 430 285 420 320 410 c 0
 352 401 381 390 406 377 c 0
 431 364 451 350 468 334 c 0
 485 318 498 299 507 278 c 0
 516 257 520 234 520 208 c 0
 520 175 514 145 501 118 c 0
 488 91 470 68 448 49 c 0
 426 30 400 15 370 4 c 0
 340 -7 309 -12 276 -12 c 0
 253 -12 229 -10 207 -7 c 0
 185 -4 164 0 144 6 c 0
 124 12 107 19 90 27 c 0
 73 35 58 44 46 54 c 1
 68 154 l 1
 101 126 134 105 169 92 c 0
 204 79 240 73 276 73 c 0
 296 73 315 76 333 82 c 0
 351 88 367 95 381 106 c 0
 395 117 407 130 415 145 c 0
 423 160 427 178 427 198 c 0
 427 211 425 222 421 234 c 0
 417 246 408 257 396 268 c 0
 384 279 366 290 343 301 c 0
 320 312 289 323 251 334 c 0
 213 345 182 358 158 372 c 0
 134 386 116 401 102 417 c 0
 88 433 78 451 73 469 c 0
 68 487 66 506 66 527 c 0
 66 548 70 570 79 593 c 0
 88 616 101 637 120 657 c 0
 139 677 162 693 191 706 c 0
 220 719 254 725 295 725 c 0
 314 725 332 725 348 723 c 0
 364 721 381 719 396 715 c 0
 411 711 427 707 442 701 c 0
 457 695 472 689 488 681 c 1
 469 586 l 1
EndSplineSet
EndChar

StartChar: b
Encoding: 98 98 4
Width: 563
GlyphClass: 2
Flags: MW
HStem: -12 75<276 291.5 276 299> 422 86<312.5 361.5> 761 20G<63 161 161 161>
VStem: 71 90<90 90 90 286 403 609 609 619.5> 430 88<243 260.5>
AnchorPoint: "Anchor-4" 564 488 basechar 0
AnchorPoint: "Anchor-3" 288 -49 basechar 0
AnchorPoint: "Anchor-2" 288 0 basechar 0
AnchorPoint: "Anchor-1" 288 -49 basechar 0
AnchorPoint: "Anchor-0" 288 798 basechar 0
LayerCount: 2
Fore
SplineSet
161 781 m 1
 161 403 l 1
 172 418 185 431 198 444 c 0
 211 457 226 469 241 478 c 0
 256 487 274 495 292 500 c 0
 310 505 328 508 349 508 c 0
 374 508 396 502 417 490 c 0
 438 478 455 461 470 439 c 0
 485 417 497 392 505 362 c 0
 513 332 518 299 518 264 c 0
 518 222 512 184 501 150 c 0
 490 116 474 87 453 63 c 0
 432 39 408 20 379 7 c 0
 350 -6 317 -12 281 -12 c 0
 261 -12 242 -11 223 -8 c 0
 204 -5 186 -1 169 3 c 0
 152 7 135 12 119 17 c 2
 71 32 l 1
 71 609 l 2
 71 630 70 651 70 672 c 0
 70 693 69 713 68 732 c 0
 67 751 65 767 63 781 c 1
 161 781 l 1
161 90 m 1
 173 85 184 81 194 78 c 0
 204 75 214 72 223 70 c 0
 232 68 242 66 251 65 c 0
 260 64 271 63 281 63 c 0
 302 63 322 68 340 77 c 0
 358 86 374 98 387 114 c 0
 400 130 411 149 418 172 c 0
 425 195 430 220 430 247 c 0
 430 274 427 298 422 320 c 0
 417 342 410 360 401 375 c 0
 392 390 381 402 367 410 c 0
 353 418 338 422 320 422 c 0
 305 422 289 419 274 412 c 0
 259 405 244 396 230 384 c 0
 216 372 203 358 191 341 c 0
 179 324 169 306 161 286 c 1
 161 90 l 1
EndSplineSet
EndChar

StartChar: c
Encoding: 99 99 5
Width: 498
GlyphClass: 2
Flags: MW
HStem: -12 80<281 292> 427 81<282 305.5>
VStem: 46 93<231 257.5>
AnchorPoint: "Anchor-4" 498 488 basechar 0
AnchorPoint: "Anchor-3" 283 -49 basechar 0
AnchorPoint: "Anchor-2" 283 0 basechar 0
AnchorPoint: "Anchor-1" 283 -49 basechar 0
AnchorPoint: "Anchor-0" 278 537 basechar 0
LayerCount: 2
Fore
SplineSet
452 42 m 1
 440 33 427 24 415 17 c 0
 403 10 389 5 376 1 c 0
 363 -3 348 -7 333 -9 c 0
 318 -11 301 -12 283 -12 c 0
 250 -12 220 -7 191 5 c 0
 162 17 137 33 116 55 c 0
 95 77 77 103 65 134 c 0
 53 165 46 200 46 239 c 0
 46 276 52 310 64 343 c 0
 76 376 93 405 115 429 c 0
 137 453 164 473 195 487 c 0
 226 501 261 508 300 508 c 0
 333 508 361 504 385 496 c 0
 409 488 429 478 447 466 c 1
 430 378 l 1
 408 394 386 407 364 415 c 0
 342 423 318 427 293 427 c 0
 271 427 251 423 232 415 c 0
 213 407 197 395 183 379 c 0
 169 363 159 344 151 321 c 0
 143 298 139 273 139 244 c 0
 139 218 143 193 150 172 c 0
 157 151 168 132 181 117 c 0
 194 102 210 89 229 81 c 0
 248 73 269 68 293 68 c 0
 323 68 350 73 374 83 c 0
 398 93 421 108 442 127 c 1
 452 42 l 1
EndSplineSet
EndChar

StartChar: i
Encoding: 105 105 6
Width: 275
GlyphClass: 2
Flags: MW
HStem: 0 21G<93 193 93 93> 478 20G<85 183 183 183> 591 132<132.5 141.5>
VStem: 76 124<652.5 661.5> 93 90<224 232 232 259 259 329 329 340.5> 93 100<0 259>
AnchorPoint: "Anchor-4" 271 488 basechar 0
AnchorPoint: "Anchor-3" 244 0 basechar 0
AnchorPoint: "Anchor-2" 138 0 basechar 0
AnchorPoint: "Anchor-1" 139 -49 basechar 0
AnchorPoint: "Anchor-0" 138 537 basechar 0
LayerCount: 2
Fore
SplineSet
76 657 m 0xf0
 76 666 77 674 80 682 c 0
 83 690 88 697 93 703 c 0xe8
 98 709 105 715 112 718 c 0
 119 721 128 723 137 723 c 0
 146 723 154 721 162 718 c 0
 170 715 176 709 182 703 c 0
 188 697 192 690 195 682 c 0
 198 674 200 666 200 657 c 0xf0
 200 648 198 639 195 631 c 0
 192 623 188 616 182 610 c 0
 176 604 170 599 162 596 c 0
 154 593 146 591 137 591 c 0
 128 591 119 593 112 596 c 0
 105 599 98 604 93 610 c 0xe8
 88 616 83 623 80 631 c 0
 77 639 76 648 76 657 c 0xf0
183 232 m 2
 183 216 184 198 184 177 c 0
 184 156 185 134 186 112 c 0
 187 90 188 69 189 49 c 0
 190 29 191 13 193 0 c 1
 93 0 l 1xe4
 93 259 l 1
 93 329 l 2
 93 352 92 374 92 395 c 0
 92 416 90 434 89 452 c 0
 88 470 87 485 85 498 c 1
 183 498 l 1
 183 232 l 2
EndSplineSet
EndChar

StartChar: s
Encoding: 115 115 7
Width: 471
GlyphClass: 2
Flags: MW
HStem: -12 78<237.5 251 237.5 255> 430 78<238.5 254.5>
VStem: 63 88<362 364.5> 342 88<133 136.5>
AnchorPoint: "Anchor-4" 471 526 basechar 0
AnchorPoint: "Anchor-3" 242 -49 basechar 0
AnchorPoint: "Anchor-2" 242 0 basechar 0
AnchorPoint: "Anchor-1" 242 -49 basechar 0
AnchorPoint: "Anchor-0" 242 537 basechar 0
LayerCount: 2
Fore
SplineSet
391 383 m 1
 383 388 373 394 363 399 c 0
 353 404 341 409 329 414 c 0
 317 419 304 422 290 425 c 0
 276 428 262 430 247 430 c 0
 229 430 213 428 201 424 c 0
 189 420 179 415 172 409 c 0
 165 403 159 396 156 388 c 0
 153 380 151 373 151 366 c 0
 151 358 152 351 155 344 c 0
 158 337 164 332 172 326 c 0
 180 320 192 315 207 310 c 0
 222 305 243 299 269 293 c 0
 291 288 311 282 331 274 c 0
 351 266 367 257 382 245 c 0
 397 233 409 219 417 203 c 0
 425 187 430 167 430 144 c 0
 430 122 425 102 415 83 c 0
 405 64 392 47 375 33 c 0
 358 19 338 8 315 0 c 0
 292 -8 268 -12 242 -12 c 0
 222 -12 202 -11 184 -8 c 0
 166 -5 149 -1 133 4 c 0
 117 9 101 15 88 22 c 0
 75 29 64 37 54 44 c 1
 78 132 l 1
 89 122 101 113 115 105 c 0
 129 97 143 90 158 84 c 0
 173 78 187 74 202 71 c 0
 217 68 231 66 244 66 c 0
 258 66 271 68 283 72 c 0
 295 76 305 80 314 86 c 0
 323 92 329 99 334 107 c 0
 339 115 342 124 342 132 c 0
 342 141 340 149 336 157 c 0
 332 165 326 173 316 180 c 0
 306 187 292 195 275 202 c 0
 258 209 235 215 208 222 c 0
 178 229 154 238 135 248 c 0
 116 258 102 268 91 280 c 0
 80 292 73 304 69 318 c 0
 65 332 63 346 63 361 c 0
 63 368 65 378 67 388 c 0
 69 398 73 408 79 419 c 0
 85 430 93 440 102 451 c 0
 111 462 123 472 137 480 c 0
 151 488 167 495 186 500 c 0
 205 505 226 508 251 508 c 0
 269 508 286 506 301 504 c 0
 316 502 331 499 344 495 c 0
 357 491 368 488 379 483 c 0
 390 478 400 474 408 469 c 1
 391 383 l 1
EndSplineSet
EndChar

StartChar: t
Encoding: 116 116 8
Width: 407
GlyphClass: 2
Flags: MW
HStem: -12 80<240.5 272> 415 71<15 112 15 112 203 361>
VStem: 112 91<177.5 190 190 415 486 645>
AnchorPoint: "Anchor-4" 408 488 basechar 0
AnchorPoint: "Anchor-3" 232 -49 basechar 0
AnchorPoint: "Anchor-2" 232 0 basechar 0
AnchorPoint: "Anchor-1" 232 -49 basechar 0
AnchorPoint: "Anchor-0" 159 664 basechar 0
LayerCount: 2
Fore
SplineSet
15 486 m 1
 112 486 l 1
 112 645 l 1
 203 645 l 1
 203 486 l 1
 361 486 l 1
 361 415 l 1
 203 415 l 1
 203 190 l 2
 203 165 204 145 206 129 c 0
 208 113 213 101 218 92 c 0
 223 83 229 76 237 73 c 0
 245 70 254 68 265 68 c 0
 279 68 294 72 312 78 c 0
 330 84 350 93 371 105 c 1
 371 27 l 1
 349 12 328 2 307 -4 c 0
 286 -10 267 -12 250 -12 c 0
 231 -12 213 -10 196 -6 c 0
 179 -2 166 7 153 18 c 0
 140 29 130 44 123 62 c 0
 116 80 112 104 112 132 c 2
 112 415 l 1
 15 415 l 1
 15 486 l 1
EndSplineSet
EndChar

StartChar: u
Encoding: 117 117 9
Width: 578
GlyphClass: 2
Flags: MW
HStem: -12 80<241 249.5> 0 21G<449 449 449 532> 478 20G<66 166 166 166 400 500 500 500>
VStem: 76 90<213 227 227 342 342 350> 410 90<205 220 220 342 342 385 385 391.5>
AnchorPoint: "Anchor-4" 579 488 basechar 0
AnchorPoint: "Anchor-3" 582 0 basechar 0
AnchorPoint: "Anchor-2" 288 0 basechar 0
AnchorPoint: "Anchor-1" 288 -49 basechar 0
AnchorPoint: "Anchor-0" 288 537 basechar 0
LayerCount: 2
Fore
SplineSet
449 0 m 1x78
 447 6 445 13 442 20 c 0
 439 27 436 35 434 43 c 0
 432 51 429 61 427 70 c 0
 425 79 423 89 422 98 c 1
 392 62 362 35 331 16 c 0
 300 -3 267 -12 232 -12 c 0
 128 -12 76 58 76 198 c 2
 76 342 l 2
 76 358 75 371 75 384 c 0
 75 397 75 409 74 421 c 0
 73 433 72 446 71 458 c 0
 70 470 68 483 66 498 c 1
 166 498 l 1
 166 227 l 2
 166 199 167 176 170 156 c 0
 173 136 177 119 184 106 c 0
 191 93 199 84 210 78 c 0
 221 72 233 68 249 68 c 0xb8
 263 68 279 72 295 81 c 0
 311 90 327 101 342 114 c 0
 357 127 370 142 382 158 c 0
 394 174 403 190 410 205 c 1
 410 342 l 1
 410 385 l 2
 410 398 410 410 409 422 c 2
 406 458 l 2
 405 470 402 483 400 498 c 1
 500 498 l 1
 500 220 l 2
 500 172 504 131 509 95 c 0
 514 59 522 28 532 0 c 1
 449 0 l 1x78
EndSplineSet
EndChar

StartChar: C_i
Encoding: 65537 -1 10
Width: 955
GlyphClass: 3
Flags: W
HStem: 227 57<204.426 640.595> 484 20G<830 836.5>
VStem: 871 33<71.2723 157.359 361.541 426.587>
LayerCount: 2
Fore
SplineSet
817 21 m 0
 817 30 830 49 845 61 c 0
 862 76 871 93 871 112 c 0
 871 135 858 160 833 183 c 0
 799 214 755 227 422 227 c 0
 174 227 50 241 50 255 c 0
 50 269 175 284 427 284 c 0
 636 284 810 296 812 298 c 0
 814 300 829 322 846 348 c 0
 860 369 867 382 867 394 c 0
 867 407 860 419 845 442 c 0
 831 464 824 481 824 492 c 0
 824 499 827 504 833 504 c 0
 840 504 852 497 867 482 c 0
 888 461 898 432 898 401 c 0
 898 361 881 319 849 291 c 2
 800 249 l 1
 845 219 l 2
 884 194 904 157 904 118 c 0
 904 96 897 72 883 51 c 0
 864 22 842 5 829 5 c 0
 822 5 817 10 817 21 c 0
EndSplineSet
LCarets2: 1 0
Ligature2: "'dlig' Discretionary Ligatures lookup 0 subtable" C i
EndChar

StartChar: C_c
Encoding: 65538 -1 11
Width: 854
GlyphClass: 3
Flags: W
VStem: 55 34<4.39467 139.737> 778 37<626.476 761.616>
LayerCount: 2
Fore
SplineSet
69 4 m 0
 62 12 55 47 55 82 c 0
 55 174 132 240 426 400 c 0
 734 568 778 605 778 702 c 0
 778 740 784 763 793 763 c 0
 794 763 795 763 796 762 c 0
 809 754 815 733 815 706 c 0
 815 665 802 611 778 581 c 0
 757 555 615 464 461 379 c 0
 135 199 89 168 89 65 c 0
 89 29 79 3 72 3 c 0
 71 3 70 3 69 4 c 0
EndSplineSet
LCarets2: 1 0
Ligature2: "'dlig' Discretionary Ligatures lookup 0 subtable" C c
EndChar

StartChar: C_s
Encoding: 65539 -1 12
Width: 839
GlyphClass: 3
Flags: W
HStem: 8 41<191.151 603.176> 804 37<610.62 713.585>
VStem: 768 32<607.122 735.519>
LayerCount: 2
Fore
SplineSet
48 24 m 0
 52 33 188 143 350 268 c 0
 732 560 768 593 768 665 c 0
 768 740 720 804 666 804 c 0
 642 804 616 813 610 823 c 0
 608 825 608 826 608 827 c 0
 608 836 628 841 652 841 c 0
 674 841 700 837 720 829 c 0
 768 810 800 733 800 662 c 0
 800 626 794 592 776 567 c 0
 760 544 608 420 438 290 c 2
 128 49 l 1
 438 49 l 2
 624 49 748 37 748 26 c 0
 748 15 614 8 396 8 c 0
 196 8 48 15 48 24 c 0
EndSplineSet
Ligature2: "'dlig' Discretionary Ligatures lookup 0 subtable" C s
EndChar

StartChar: A_c
Encoding: 65540 -1 13
Width: 844
GlyphClass: 3
Flags: W
HStem: 5 39<305.149 533.948>
VStem: 53 41<270.661 392.924>
LayerCount: 2
Fore
SplineSet
252 46 m 0
 155 97 70 223 55 338 c 0
 53 353 53 365 53 375 c 0
 53 396 56 405 62 405 c 0
 71 405 86 376 94 321 c 0
 120 163 238 44 399 44 c 0
 576 44 692 119 755 311 c 2
 791 420 l 1
 791 330 l 2
 791 139 609 5 422 5 c 0
 364 5 306 18 252 46 c 0
EndSplineSet
Ligature2: "'dlig' Discretionary Ligatures lookup 0 subtable" A c
EndChar

StartChar: A_s
Encoding: 65541 -1 14
Width: 925
GlyphClass: 3
Flags: W
HStem: 6 40<203.869 646.182>
VStem: 50 114<16.5 65>
LayerCount: 2
Fore
SplineSet
54 31 m 0
 94 68 820 644 846 661 c 0
 858 669 870 668 870 659 c 0
 870 650 704 510 500 347 c 0
 240 140 164 75 164 55 c 0
 164 47 176 46 194 46 c 0
 250 46 282 58 428 172 c 0
 514 238 588 284 604 284 c 0
 606 284 608 284 608 283 c 2
 608 279 l 2
 608 268 596 250 580 238 c 0
 560 225 496 175 436 128 c 2
 326 43 l 1
 598 43 l 2
 766 43 870 36 870 24 c 0
 870 12 716 6 448 6 c 0
 134 6 50 9 50 24 c 0
 50 26 52 28 54 31 c 0
EndSplineSet
LCarets2: 1 0
Ligature2: "'dlig' Discretionary Ligatures lookup 0 subtable" A s
EndChar

StartChar: N_s
Encoding: 65542 -1 15
Width: 978
GlyphClass: 3
Flags: W
HStem: 8 37<267.422 302.243 417.687 868>
VStem: 868 37<45 440.965>
LayerCount: 2
Fore
SplineSet
54 31 m 0
 70 43 255 192 467 360 c 0
 679 528 858 668 868 672 c 0
 874 674 879 676 882 676 c 0
 885 676 887 674 887 672 c 0
 887 655 775 560 506 346 c 2
 126 45 l 1
 211 45 l 2
 291 45 310 55 522 225 c 0
 647 325 783 434 826 468 c 2
 905 529 l 1
 905 269 l 1
 905 8 l 1
 465 8 l 2
 150 8 51 13 51 27 c 0
 51 29 52 29 54 31 c 0
868 250 m 2
 868 393 864 441 851 441 c 0
 849 441 847 441 845 439 c 0
 699 326 368 58 368 52 c 0
 368 48 480 45 618 45 c 2
 868 45 l 1
 868 250 l 2
EndSplineSet
Ligature2: "'dlig' Discretionary Ligatures lookup 0 subtable" N s
EndChar

StartChar: S_c
Encoding: 65543 -1 16
Width: 972
GlyphClass: 3
Flags: W
HStem: 8 35<417.641 565.738> 191 37<51.6173 248.543 724.544 920.93> 284 37<52.3624 249.079> 300 21<737.609 916.715> 469 33<409.342 562.632>
LayerCount: 2
Fore
SplineSet
369 42 m 0xc8
 340 62 299 103 279 134 c 0
 246 187 235 191 142 191 c 0
 85 191 51 197 51 207 c 0
 51 208 51 209 52 210 c 0
 59 220 113 228 173 228 c 0
 275 228 284 225 295 181 c 0
 312 114 412 43 491 43 c 0
 566 43 641 94 677 169 c 0
 698 213 713 225 800 225 c 0
 855 225 909 222 920 211 c 0
 922 209 923 206 923 204 c 0
 923 195 895 191 834 191 c 0
 736 191 727 188 700 135 c 0
 659 55 571 8 485 8 c 0
 444 8 404 19 369 42 c 0xc8
52 300 m 0xd8
 51 301 51 306 51 307 c 0
 51 317 85 321 143 321 c 0xe8
 238 321 248 324 275 377 c 0
 318 460 403 502 488 502 c 0
 573 502 657 460 700 377 c 0
 727 324 737 321 834 321 c 0
 969 321 954 300 811 300 c 2
 786 300 l 2xd8
 705 300 697 302 677 344 c 0
 638 424 562 469 486 469 c 0
 442 469 398 454 361 423 c 0
 331 397 302 356 295 330 c 0
 284 287 275 284 173 284 c 0xe8
 113 284 59 290 52 300 c 0xd8
EndSplineSet
Ligature2: "'dlig' Discretionary Ligatures lookup 0 subtable" S c
EndChar

StartChar: C_u
Encoding: 65544 -1 17
Width: 964
GlyphClass: 3
Flags: W
HStem: 0 21G<62 73 880 892> 371 27<394.804 559.481> 540 34<411.96 550.779>
VStem: 53 34<0.437531 102.335> 273 38<379.921 441.521> 663 36<375.142 437.071> 865 40<0.0124016 106.558>
LayerCount: 2
Fore
SplineSet
57 57 m 0
 77 156 127 241 201 300 c 0
 247 336 273 374 273 400 c 0
 273 423 301 471 335 508 c 0
 387 563 411 574 475 574 c 0
 517 574 573 561 599 544 c 0
 649 510 699 428 699 376 c 0
 699 358 727 320 761 292 c 0
 835 234 905 92 905 30 c 0
 905 11 899 0 885 0 c 0
 875 0 865 17 865 38 c 0
 865 92 803 204 741 263 c 0
 685 317 557 371 481 371 c 0
 401 371 297 330 227 273 c 0
 157 214 87 100 87 38 c 0
 87 17 79 0 67 0 c 0
 57 0 53 9 53 26 c 0
 53 35 55 45 57 57 c 0
477 398 m 0
 513 398 569 391 603 383 c 0
 621 378 635 375 643 375 c 0
 659 375 663 382 663 398 c 0
 663 415 637 453 607 483 c 0
 569 521 525 540 481 540 c 0
 435 540 393 520 359 480 c 0
 327 442 311 414 311 397 c 0
 311 385 317 379 333 379 c 0
 341 379 351 381 361 384 c 0
 389 392 441 398 477 398 c 0
EndSplineSet
Ligature2: "'dlig' Discretionary Ligatures lookup 0 subtable" C u
EndChar

StartChar: S_t
Encoding: 65545 -1 18
Width: 934
GlyphClass: 3
Flags: W
HStem: 223 38<53.0475 367.952 572.048 886.953>
LayerCount: 2
Fore
SplineSet
53 242 m 0
 53 253 118 261 210 261 c 0
 302 261 368 253 368 242 c 0
 368 231 302 223 210 223 c 0
 118 223 53 231 53 242 c 0
572 242 m 0
 572 253 638 261 730 261 c 0
 822 261 887 253 887 242 c 0
 887 231 822 223 730 223 c 0
 638 223 572 231 572 242 c 0
EndSplineSet
Ligature2: "'dlig' Discretionary Ligatures lookup 0 subtable" S t
EndChar

StartChar: C_b
Encoding: 65546 -1 19
Width: 920
GlyphClass: 3
Flags: W
HStem: 391 35<339.934 575.307> 638 39<248.138 652.571>
VStem: 773 54<603.823 661.5> 819 42<20.5432 157.733>
LayerCount: 2
Fore
SplineSet
57 84 m 0xd0
 71 182 107 247 181 320 c 2
 239 377 l 1
 159 513 l 2
 113 588 75 655 71 662 c 0
 71 669 239 677 447 677 c 0
 719 677 827 669 827 654 c 0xe0
 827 642 795 580 753 516 c 0
 713 452 679 392 679 384 c 0
 679 376 705 346 735 317 c 0
 767 288 805 241 819 212 c 0
 845 165 861 83 861 39 c 0
 861 20 857 9 851 9 c 0
 841 9 827 45 819 87 c 0
 803 192 747 279 655 338 c 0
 599 373 529 391 457 391 c 0
 387 391 315 373 261 338 c 0
 169 279 111 192 95 87 c 0
 87 45 73 9 63 9 c 0
 57 9 53 21 53 41 c 0
 53 53 53 67 57 84 c 0xd0
457 426 m 0
 503 426 563 419 589 412 c 0
 599 409 609 407 617 407 c 0
 643 407 659 429 705 506 c 0
 743 566 773 620 773 627 c 0
 773 634 631 638 457 638 c 0
 285 638 143 632 143 624 c 0
 143 616 171 562 209 503 c 0
 255 428 271 407 297 407 c 0
 305 407 313 409 323 412 c 0
 349 419 411 426 457 426 c 0
EndSplineSet
Ligature2: "'dlig' Discretionary Ligatures lookup 0 subtable" C b
EndChar
